<svg width="130" height="40" viewBox="0 0 130 40" fill="none" xmlns="http://www.w3.org/2000/svg">
<path d="M0 2.20339C0 0.98649 0.986491 0 2.20339 0H127.101C128.558 0 129.614 1.38912 129.224 2.79311L119.431 38.0474C119.166 39.001 118.298 39.661 117.308 39.661H2.20339C0.98649 39.661 0 38.6745 0 37.4576V2.20339Z" fill="url(#paint0_linear_1_2044)"/>
<path d="M30.9749 25.0171V13.7998H35.4005C36.2513 13.7998 36.9761 13.9623 37.5749 14.2873C38.1738 14.6086 38.6302 15.0559 38.9442 15.6292C39.2619 16.1988 39.4207 16.8561 39.4207 17.601C39.4207 18.3459 39.2601 19.0031 38.9388 19.5728C38.6174 20.1424 38.1519 20.5861 37.5421 20.9037C36.9359 21.2214 36.202 21.3802 35.3402 21.3802H32.5195V19.4797H34.9568C35.4133 19.4797 35.7894 19.4012 36.0851 19.2441C36.3846 19.0835 36.6073 18.8626 36.7534 18.5814C36.9031 18.2966 36.9779 17.9698 36.9779 17.601C36.9779 17.2285 36.9031 16.9036 36.7534 16.6261C36.6073 16.3449 36.3846 16.1276 36.0851 15.9743C35.7857 15.8173 35.406 15.7388 34.9459 15.7388H33.3466V25.0171H30.9749ZM43.2507 13.7998V25.0171H40.9174V13.7998H43.2507ZM47.5187 25.1759C46.982 25.1759 46.5036 25.0828 46.0837 24.8966C45.6638 24.7067 45.3315 24.4274 45.0869 24.0586C44.8459 23.6861 44.7254 23.2224 44.7254 22.6674C44.7254 22.2 44.8112 21.8075 44.9828 21.4898C45.1544 21.1721 45.3881 20.9165 45.6839 20.723C45.9797 20.5295 46.3156 20.3834 46.6917 20.2848C47.0714 20.1862 47.4695 20.1168 47.8857 20.0767C48.375 20.0256 48.7694 19.9781 49.0688 19.9343C49.3682 19.8868 49.5855 19.8174 49.7206 19.7261C49.8557 19.6349 49.9232 19.4997 49.9232 19.3208V19.288C49.9232 18.9411 49.8137 18.6727 49.5946 18.4828C49.3792 18.2929 49.0724 18.198 48.6744 18.198C48.2545 18.198 47.9204 18.2911 47.6721 18.4773C47.4238 18.6599 47.2595 18.89 47.1792 19.1675L45.0212 18.9922C45.1307 18.481 45.3461 18.0392 45.6675 17.6667C45.9888 17.2906 46.4032 17.0022 46.9108 16.8013C47.422 16.5968 48.0135 16.4946 48.6854 16.4946C49.1528 16.4946 49.6001 16.5494 50.0273 16.6589C50.4582 16.7685 50.8397 16.9383 51.172 17.1683C51.508 17.3983 51.7727 17.6941 51.9662 18.0556C52.1597 18.4134 52.2565 18.8425 52.2565 19.3427V25.0171H50.0437V23.8505H49.978C49.8429 24.1134 49.6622 24.3452 49.4358 24.5461C49.2094 24.7432 48.9373 24.8984 48.6197 25.0116C48.302 25.1212 47.935 25.1759 47.5187 25.1759ZM48.187 23.5656C48.5302 23.5656 48.8333 23.4981 49.0962 23.363C49.3591 23.2242 49.5654 23.038 49.7151 22.8043C49.8648 22.5706 49.9397 22.3059 49.9397 22.0101V21.1173C49.8666 21.1648 49.7662 21.2086 49.6384 21.2488C49.5143 21.2853 49.3737 21.32 49.2167 21.3529C49.0597 21.3821 48.9026 21.4095 48.7456 21.435C48.5886 21.4569 48.4462 21.477 48.3184 21.4953C48.0446 21.5354 47.8054 21.5993 47.6009 21.687C47.3964 21.7746 47.2376 21.8933 47.1244 22.043C47.0112 22.189 46.9546 22.3716 46.9546 22.5907C46.9546 22.9084 47.0696 23.1512 47.2997 23.3192C47.5334 23.4835 47.8291 23.5656 48.187 23.5656ZM55.206 28.1719C54.9102 28.1719 54.6327 28.1482 54.3734 28.1007C54.1178 28.0569 53.906 28.0003 53.7381 27.9309L54.2639 26.1892C54.5378 26.2732 54.7842 26.3188 55.0033 26.3261C55.226 26.3334 55.4178 26.2823 55.5784 26.1728C55.7427 26.0632 55.876 25.877 55.9782 25.6141L56.1152 25.2581L53.0973 16.6041H55.551L57.2928 22.7824H57.3804L59.1386 16.6041H61.6088L58.3389 25.9263C58.1819 26.3791 57.9683 26.7734 57.6981 27.1094C57.4315 27.449 57.0938 27.71 56.6848 27.8926C56.2758 28.0788 55.7829 28.1719 55.206 28.1719ZM75.7988 13.7998V25.0171H73.7503L68.8702 17.957H68.788V25.0171H66.4164V13.7998H68.4977L73.3395 20.8544H73.4381V13.7998H75.7988ZM81.5156 25.1814C80.6648 25.1814 79.929 25.0007 79.3083 24.6392C78.6912 24.274 78.2147 23.7665 77.8787 23.1165C77.5428 22.4629 77.3748 21.7052 77.3748 20.8435C77.3748 19.9744 77.5428 19.2149 77.8787 18.565C78.2147 17.9114 78.6912 17.4038 79.3083 17.0423C79.929 16.6772 80.6648 16.4946 81.5156 16.4946C82.3664 16.4946 83.1003 16.6772 83.7174 17.0423C84.3382 17.4038 84.8165 17.9114 85.1524 18.565C85.4884 19.2149 85.6563 19.9744 85.6563 20.8435C85.6563 21.7052 85.4884 22.4629 85.1524 23.1165C84.8165 23.7665 84.3382 24.274 83.7174 24.6392C83.1003 25.0007 82.3664 25.1814 81.5156 25.1814ZM81.5265 23.3739C81.9136 23.3739 82.2367 23.2644 82.496 23.0453C82.7553 22.8226 82.9506 22.5195 83.0821 22.1361C83.2172 21.7527 83.2847 21.3163 83.2847 20.827C83.2847 20.3378 83.2172 19.9014 83.0821 19.518C82.9506 19.1346 82.7553 18.8315 82.496 18.6088C82.2367 18.3861 81.9136 18.2747 81.5265 18.2747C81.1358 18.2747 80.8072 18.3861 80.5406 18.6088C80.2777 18.8315 80.0787 19.1346 79.9436 19.518C79.8122 19.9014 79.7465 20.3378 79.7465 20.827C79.7465 21.3163 79.8122 21.7527 79.9436 22.1361C80.0787 22.5195 80.2777 22.8226 80.5406 23.0453C80.8072 23.2644 81.1358 23.3739 81.5265 23.3739ZM88.6222 25.0171L86.3328 16.6041H88.6934L89.997 22.2566H90.0737L91.432 16.6041H93.7489L95.1291 22.2237H95.2003L96.482 16.6041H98.8372L96.5532 25.0171H94.083L92.637 19.7261H92.5329L91.087 25.0171H88.6222Z" fill="white"/>
<defs>
<linearGradient id="paint0_linear_1_2044" x1="-2.10205e-07" y1="29.4153" x2="125.757" y2="31.3031" gradientUnits="userSpaceOnUse">
<stop stop-color="#C1260F"/>
<stop offset="1" stop-color="#EE642A"/>
</linearGradient>
</defs>
</svg>
