<svg width="162" height="60" viewBox="0 0 162 60" fill="none" xmlns="http://www.w3.org/2000/svg">
<path d="M154.5 47.7778C154.5 48.7128 153.71 49.5 152.7 49.5H22.3019C21.0894 49.5 20.2571 48.3951 20.5659 47.3212L30.79 11.7656C31.0022 11.0276 31.7054 10.5 32.526 10.5H152.7C153.71 10.5 154.5 11.2872 154.5 12.2222V47.7778Z" stroke="url(#paint0_linear_1_2052)"/>
<path d="M46.4288 35.644L43.3178 24.4268H45.0979L47.2833 33.1136H47.3874L49.6604 24.4268H51.424L53.6971 33.1191H53.8011L55.981 24.4268H57.7666L54.6501 35.644H52.9467L50.586 27.2421H50.4984L48.1377 35.644H46.4288ZM60.7982 35.8303C60.2651 35.8303 59.7831 35.7317 59.3522 35.5345C58.9214 35.3337 58.58 35.0434 58.328 34.6636C58.0797 34.2839 57.9556 33.8183 57.9556 33.2669C57.9556 32.7923 58.0469 32.4016 58.2294 32.0948C58.412 31.7881 58.6585 31.5453 58.9688 31.3664C59.2792 31.1874 59.6261 31.0523 60.0095 30.9611C60.3929 30.8698 60.7836 30.8004 61.1816 30.7529C61.6855 30.6945 62.0945 30.647 62.4085 30.6105C62.7225 30.5704 62.9508 30.5065 63.0932 30.4188C63.2356 30.3312 63.3068 30.1888 63.3068 29.9916V29.9533C63.3068 29.4749 63.1717 29.1043 62.9015 28.8414C62.6349 28.5785 62.2369 28.447 61.7074 28.447C61.1561 28.447 60.7215 28.5694 60.4039 28.814C60.0898 29.055 59.8726 29.3234 59.7521 29.6191L58.213 29.2686C58.3956 28.7574 58.6621 28.3448 59.0127 28.0308C59.3669 27.7131 59.774 27.483 60.2341 27.3406C60.6942 27.1946 61.178 27.1216 61.6855 27.1216C62.0215 27.1216 62.3775 27.1617 62.7536 27.2421C63.1333 27.3187 63.4875 27.4611 63.8161 27.6693C64.1484 27.8774 64.4205 28.175 64.6322 28.5621C64.844 28.9455 64.9499 29.4439 64.9499 30.0573V35.644H63.3506V34.4938H63.2849C63.179 34.7056 63.0201 34.9138 62.8083 35.1182C62.5966 35.3227 62.3245 35.4925 61.9922 35.6276C61.66 35.7627 61.262 35.8303 60.7982 35.8303ZM61.1542 34.5157C61.607 34.5157 61.9941 34.4263 62.3154 34.2474C62.6404 34.0684 62.8869 33.8347 63.0548 33.5463C63.2264 33.2542 63.3122 32.942 63.3122 32.6097V31.5252C63.2538 31.5836 63.1406 31.6384 62.9727 31.6895C62.8083 31.737 62.6203 31.779 62.4085 31.8155C62.1967 31.8484 61.9904 31.8794 61.7896 31.9086C61.5888 31.9342 61.4208 31.9561 61.2857 31.9743C60.968 32.0145 60.6777 32.0821 60.4148 32.177C60.1556 32.2719 59.9474 32.4089 59.7904 32.5878C59.6371 32.763 59.5604 32.9967 59.5604 33.2889C59.5604 33.6942 59.7101 34.0009 60.0095 34.209C60.3089 34.4135 60.6905 34.5157 61.1542 34.5157ZM71.0583 27.2311V28.5456H66.463V27.2311H71.0583ZM67.6954 25.2155H69.333V33.1738C69.333 33.4915 69.3805 33.7307 69.4754 33.8913C69.5704 34.0484 69.6927 34.1561 69.8424 34.2145C69.9958 34.2693 70.1619 34.2967 70.3408 34.2967C70.4723 34.2967 70.5873 34.2875 70.6859 34.2693C70.7845 34.251 70.8612 34.2364 70.9159 34.2255L71.2117 35.5783C71.1168 35.6148 70.9817 35.6513 70.8064 35.6879C70.6311 35.728 70.412 35.7499 70.1491 35.7536C69.7183 35.7609 69.3166 35.6842 68.9442 35.5235C68.5717 35.3629 68.2705 35.1146 68.0404 34.7786C67.8104 34.4427 67.6954 34.021 67.6954 33.5134V25.2155ZM76.3233 35.8138C75.509 35.8138 74.8079 35.6294 74.22 35.2606C73.6358 34.8882 73.1867 34.3752 72.8727 33.7216C72.5586 33.0679 72.4016 32.3194 72.4016 31.4759C72.4016 30.6215 72.5623 29.8674 72.8836 29.2138C73.2049 28.5566 73.6577 28.0435 74.242 27.6748C74.8262 27.306 75.5145 27.1216 76.3068 27.1216C76.9459 27.1216 77.5155 27.2402 78.0157 27.4776C78.516 27.7113 78.9195 28.0399 79.2262 28.4635C79.5366 28.887 79.721 29.3818 79.7794 29.9478H78.1855C78.0979 29.5534 77.8971 29.2138 77.583 28.929C77.2727 28.6442 76.8564 28.5018 76.3342 28.5018C75.8778 28.5018 75.478 28.6223 75.1347 28.8633C74.7951 29.1006 74.5304 29.4402 74.3405 29.8821C74.1507 30.3202 74.0557 30.8387 74.0557 31.4376C74.0557 32.051 74.1488 32.5805 74.3351 33.026C74.5213 33.4714 74.7842 33.8165 75.1238 34.0611C75.467 34.3058 75.8705 34.4281 76.3342 34.4281C76.6446 34.4281 76.9258 34.3715 77.1777 34.2583C77.4333 34.1415 77.6469 33.9753 77.8185 33.7599C77.9938 33.5445 78.1161 33.2852 78.1855 32.9821H79.7794C79.721 33.5262 79.5439 34.0118 79.2481 34.4391C78.9523 34.8663 78.5561 35.2022 78.0595 35.4469C77.5666 35.6915 76.9878 35.8138 76.3233 35.8138ZM83.1684 30.6489V35.644H81.5307V24.4268H83.1465V28.6004H83.2505C83.4477 28.1476 83.749 27.7879 84.1543 27.5214C84.5596 27.2548 85.089 27.1216 85.7427 27.1216C86.3196 27.1216 86.8235 27.2402 87.2544 27.4776C87.6889 27.7149 88.0248 28.0691 88.2622 28.5401C88.5032 29.0075 88.6237 29.5918 88.6237 30.2928V35.644H86.986V30.49C86.986 29.8729 86.8271 29.3946 86.5095 29.055C86.1918 28.7118 85.75 28.5401 85.184 28.5401C84.7969 28.5401 84.45 28.6223 84.1433 28.7866C83.8402 28.9509 83.6011 29.1919 83.4258 29.5096C83.2542 29.8236 83.1684 30.2034 83.1684 30.6489ZM94.4692 25.8837V24.4268H103.15V25.8837H99.6506V35.644H97.9636V25.8837H94.4692ZM104.064 35.644V27.2311H105.647V28.5675H105.734C105.888 28.1148 106.158 27.7587 106.545 27.4995C106.936 27.2366 107.377 27.1051 107.87 27.1051C107.973 27.1051 108.093 27.1088 108.232 27.1161C108.374 27.1234 108.486 27.1325 108.566 27.1435V28.7099C108.5 28.6917 108.383 28.6716 108.216 28.6497C108.048 28.6241 107.88 28.6113 107.712 28.6113C107.325 28.6113 106.979 28.6935 106.676 28.8578C106.377 29.0185 106.14 29.243 105.964 29.5315C105.789 29.8163 105.701 30.1413 105.701 30.5065V35.644H104.064ZM112.356 35.8303C111.823 35.8303 111.341 35.7317 110.91 35.5345C110.479 35.3337 110.138 35.0434 109.886 34.6636C109.638 34.2839 109.514 33.8183 109.514 33.2669C109.514 32.7923 109.605 32.4016 109.787 32.0948C109.97 31.7881 110.217 31.5453 110.527 31.3664C110.837 31.1874 111.184 31.0523 111.568 30.9611C111.951 30.8698 112.342 30.8004 112.74 30.7529C113.244 30.6945 113.653 30.647 113.967 30.6105C114.281 30.5704 114.509 30.5065 114.651 30.4188C114.794 30.3312 114.865 30.1888 114.865 29.9916V29.9533C114.865 29.4749 114.73 29.1043 114.459 28.8414C114.193 28.5785 113.795 28.447 113.265 28.447C112.714 28.447 112.28 28.5694 111.962 28.814C111.648 29.055 111.431 29.3234 111.31 29.6191L109.771 29.2686C109.954 28.7574 110.22 28.3448 110.571 28.0308C110.925 27.7131 111.332 27.483 111.792 27.3406C112.252 27.1946 112.736 27.1216 113.244 27.1216C113.579 27.1216 113.936 27.1617 114.312 27.2421C114.691 27.3187 115.046 27.4611 115.374 27.6693C115.706 27.8774 115.978 28.175 116.19 28.5621C116.402 28.9455 116.508 29.4439 116.508 30.0573V35.644H114.909V34.4938H114.843C114.737 34.7056 114.578 34.9138 114.366 35.1182C114.155 35.3227 113.883 35.4925 113.55 35.6276C113.218 35.7627 112.82 35.8303 112.356 35.8303ZM112.712 34.5157C113.165 34.5157 113.552 34.4263 113.873 34.2474C114.198 34.0684 114.445 33.8347 114.613 33.5463C114.784 33.2542 114.87 32.942 114.87 32.6097V31.5252C114.812 31.5836 114.699 31.6384 114.531 31.6895C114.366 31.737 114.178 31.779 113.967 31.8155C113.755 31.8484 113.548 31.8794 113.348 31.9086C113.147 31.9342 112.979 31.9561 112.844 31.9743C112.526 32.0145 112.236 32.0821 111.973 32.177C111.714 32.2719 111.505 32.4089 111.348 32.5878C111.195 32.763 111.118 32.9967 111.118 33.2889C111.118 33.6942 111.268 34.0009 111.568 34.209C111.867 34.4135 112.249 34.5157 112.712 34.5157ZM118.689 35.644V27.2311H120.327V35.644H118.689ZM119.516 25.933C119.231 25.933 118.987 25.8381 118.782 25.6482C118.582 25.4547 118.481 25.2246 118.481 24.9581C118.481 24.6879 118.582 24.4578 118.782 24.2679C118.987 24.0744 119.231 23.9777 119.516 23.9777C119.801 23.9777 120.044 24.0744 120.245 24.2679C120.449 24.4578 120.551 24.6879 120.551 24.9581C120.551 25.2246 120.449 25.4547 120.245 25.6482C120.044 25.8381 119.801 25.933 119.516 25.933ZM124.168 24.4268V35.644H122.53V24.4268H124.168ZM129.915 35.8138C129.126 35.8138 128.438 35.6331 127.85 35.2716C127.262 34.9101 126.806 34.4044 126.481 33.7544C126.156 33.1045 125.993 32.345 125.993 31.4759C125.993 30.6032 126.156 29.8401 126.481 29.1865C126.806 28.5328 127.262 28.0253 127.85 27.6638C128.438 27.3023 129.126 27.1216 129.915 27.1216C130.703 27.1216 131.392 27.3023 131.98 27.6638C132.567 28.0253 133.024 28.5328 133.349 29.1865C133.674 29.8401 133.836 30.6032 133.836 31.4759C133.836 32.345 133.674 33.1045 133.349 33.7544C133.024 34.4044 132.567 34.9101 131.98 35.2716C131.392 35.6331 130.703 35.8138 129.915 35.8138ZM129.92 34.4391C130.431 34.4391 130.855 34.304 131.191 34.0338C131.527 33.7635 131.775 33.4039 131.936 32.9547C132.1 32.5056 132.182 32.0108 132.182 31.4704C132.182 30.9337 132.1 30.4407 131.936 29.9916C131.775 29.5388 131.527 29.1755 131.191 28.9016C130.855 28.6278 130.431 28.4909 129.92 28.4909C129.405 28.4909 128.978 28.6278 128.639 28.9016C128.303 29.1755 128.052 29.5388 127.888 29.9916C127.727 30.4407 127.647 30.9337 127.647 31.4704C127.647 32.0108 127.727 32.5056 127.888 32.9547C128.052 33.4039 128.303 33.7635 128.639 34.0338C128.978 34.304 129.405 34.4391 129.92 34.4391ZM135.664 35.644V27.2311H137.247V28.5675H137.335C137.488 28.1148 137.758 27.7587 138.146 27.4995C138.536 27.2366 138.978 27.1051 139.471 27.1051C139.573 27.1051 139.694 27.1088 139.833 27.1161C139.975 27.1234 140.086 27.1325 140.167 27.1435V28.7099C140.101 28.6917 139.984 28.6716 139.816 28.6497C139.648 28.6241 139.48 28.6113 139.312 28.6113C138.925 28.6113 138.58 28.6935 138.277 28.8578C137.978 29.0185 137.74 29.243 137.565 29.5315C137.39 29.8163 137.302 30.1413 137.302 30.5065V35.644H135.664Z" fill="white"/>
<defs>
<linearGradient id="paint0_linear_1_2052" x1="20.0001" y1="39.6667" x2="150.593" y2="41.6852" gradientUnits="userSpaceOnUse">
<stop stop-color="#C1260F"/>
<stop offset="1" stop-color="#EE642A"/>
</linearGradient>
</defs>
</svg>
